<svg width="24" height="24" viewBox="0 0 24 24" fill="none" xmlns="http://www.w3.org/2000/svg">
<path d="M11.6204 5.58365C11.8722 5.54976 12.1278 5.54976 12.3796 5.58365C12.8167 5.64249 13.1896 5.82188 13.5554 6.05821C13.909 6.28666 14.3099 6.60584 14.7874 6.9845L21.7113 12.4747C22.0429 12.7378 22.0968 13.2182 21.8315 13.547C21.5661 13.8757 21.0815 13.9291 20.7498 13.6661L13.8259 8.17488C13.3249 7.77762 12.9914 7.5145 12.7151 7.33596C12.451 7.16529 12.2975 7.11156 12.1723 7.09471C12.058 7.07935 11.942 7.07935 11.8277 7.09471C11.7025 7.11156 11.549 7.16529 11.2849 7.33596C11.0086 7.5145 10.6751 7.77762 10.1741 8.17488L3.25023 13.6661C2.91854 13.9291 2.43391 13.8757 2.16853 13.547C1.90317 13.2182 1.95707 12.7378 2.28871 12.4747L9.21261 6.9845C9.69012 6.60584 10.091 6.28666 10.4446 6.05821C10.8104 5.82188 11.1833 5.64249 11.6204 5.58365ZM11.6204 2.02542C11.8722 1.99153 12.1278 1.99153 12.3796 2.02542C12.8167 2.08426 13.1896 2.26365 13.5554 2.49998C13.909 2.72843 14.3099 3.04761 14.7874 3.42627L21.7113 8.91651C22.0429 9.17959 22.0968 9.65995 21.8315 9.98875C21.5661 10.3174 21.0815 10.3708 20.7498 10.1079L13.8259 4.61665C13.3249 4.21939 12.9914 3.95627 12.7151 3.77773C12.451 3.60706 12.2975 3.55333 12.1723 3.53647C12.058 3.52112 11.942 3.52112 11.8277 3.53647C11.7025 3.55333 11.549 3.60706 11.2849 3.77773C11.0086 3.95627 10.6751 4.21939 10.1741 4.61665L3.25023 10.1079C2.91854 10.3708 2.43391 10.3174 2.16853 9.98875C1.90317 9.65995 1.95707 9.17959 2.28871 8.91651L9.21261 3.42627C9.69012 3.04761 10.091 2.72843 10.4446 2.49998C10.8104 2.26365 11.1833 2.08426 11.6204 2.02542Z" fill="white"/>
<path d="M9.94877 18.4584V17.2239C9.94877 16.101 10.8671 15.1906 12 15.1906C13.1329 15.1906 14.0512 16.101 14.0512 17.2239V18.4584C14.0512 19.8621 15.1992 21 16.6153 21C18.0313 21 19.1793 19.8621 19.1793 18.4584V11.4436L14.3065 7.5795C13.3277 6.80329 12.8383 6.41519 12.276 6.33951C12.0928 6.31487 11.9072 6.31487 11.724 6.33951C11.1617 6.41519 10.6723 6.80329 9.6935 7.57949L4.8207 11.4436V18.4584C4.8207 19.8621 5.96866 21 7.38474 21C8.80081 21 9.94877 19.8621 9.94877 18.4584Z" fill="white"/>
</svg>
