<svg width="28" height="28" viewBox="0 0 28 28" fill="none" xmlns="http://www.w3.org/2000/svg">
<path d="M23.8724 14C23.8724 13.3557 23.8089 12.7266 23.6913 12.1175C22.6388 13.6851 21.2171 14.9834 19.5489 15.8872C19.3444 17.3852 18.9144 18.9573 18.3032 20.4082C17.8314 21.5282 17.2353 22.6106 16.527 23.5434C20.7549 22.4272 23.8724 18.5786 23.8724 14ZM17.5799 16.7285C16.4519 17.0918 15.2497 17.2906 14.0007 17.2906C12.7512 17.2906 11.5485 17.092 10.4203 16.7285C10.631 17.7256 10.9455 18.7452 11.3527 19.7118C12.0454 21.3559 12.9654 22.7573 14.0007 23.6427C15.0359 22.7573 15.9559 21.3559 16.6486 19.7118C17.0557 18.7452 17.3691 17.7255 17.5799 16.7285ZM14.0007 4.35605C12.9652 5.24149 12.0455 6.64373 11.3527 8.28817C10.5569 10.1775 10.1118 12.2685 10.1118 14C10.1118 14.2301 10.1196 14.4666 10.1351 14.7081C11.3227 15.214 12.6287 15.4957 14.0007 15.4957C15.3722 15.4957 16.6777 15.2138 17.865 14.7081C17.8805 14.4666 17.8895 14.2301 17.8895 14C17.8895 12.2685 17.4444 10.1775 16.6486 8.28817C15.9558 6.64373 15.0361 5.24149 14.0007 4.35605ZM11.4731 4.45537C8.62894 5.20652 6.28702 7.19483 5.05901 9.81195C5.79225 11.3746 6.923 12.7124 8.3204 13.6973C8.36808 11.7657 8.86625 9.56656 9.6981 7.59173C10.1699 6.47169 10.7647 5.38825 11.4731 4.45537ZM16.527 4.45537C17.2356 5.38838 17.8313 6.47146 18.3032 7.59173C19.1351 9.56655 19.632 11.7657 19.6797 13.6973C21.0774 12.7125 22.2077 11.3747 22.9411 9.81195C21.7129 7.19471 19.3715 5.20626 16.527 4.45537ZM4.12886 14C4.12886 18.5782 7.24583 22.4268 11.4731 23.5434C10.765 22.6107 10.1698 21.528 9.6981 20.4082C9.08691 18.9573 8.65575 17.3853 8.45127 15.8872C6.78322 14.9833 5.36115 13.6851 4.30881 12.1175C4.19127 12.7265 4.12886 13.3557 4.12886 14ZM25.6673 14C25.6673 20.4433 20.444 25.6666 14.0007 25.6666C7.55733 25.6666 2.33398 20.4433 2.33398 14C2.33398 12.3924 2.65918 10.8585 3.24895 9.46255L3.42189 9.07343C5.27831 5.09367 9.31633 2.33331 14.0007 2.33331C18.8362 2.33331 22.983 5.27477 24.7524 9.46255L24.9604 9.99307C25.4177 11.2437 25.6673 12.5935 25.6673 14Z" fill="#5A8DDE"/>
</svg>
