<svg width="28" height="28" viewBox="0 0 28 28" fill="none" xmlns="http://www.w3.org/2000/svg">
<path d="M23.8715 14C23.8715 13.3557 23.8079 12.7267 23.6903 12.1175C22.6379 13.6852 21.2161 14.9834 19.5479 15.8872C19.3434 17.3853 18.9134 18.9574 18.3022 20.4083C17.8304 21.5283 17.2344 22.6106 16.526 23.5435C20.7539 22.4272 23.8715 18.5786 23.8715 14ZM17.5789 16.7286C16.4509 17.0919 15.2487 17.2906 13.9997 17.2906C12.7503 17.2906 11.5476 17.0921 10.4193 16.7286C10.6301 17.7257 10.9446 18.7452 11.3518 19.7118C12.0444 21.356 12.9645 22.7573 13.9997 23.6428C15.0349 22.7573 15.955 21.356 16.6476 19.7118C17.0547 18.7453 17.3681 17.7256 17.5789 16.7286ZM13.9997 4.35611C12.9642 5.24155 12.0445 6.64379 11.3518 8.28823C10.5559 10.1776 10.1108 12.2685 10.1108 14C10.1108 14.2302 10.1187 14.4667 10.1342 14.7082C11.3217 15.2141 12.6277 15.4958 13.9997 15.4958C15.3712 15.4958 16.6768 15.2138 17.864 14.7082C17.8795 14.4666 17.8886 14.2302 17.8886 14C17.8886 12.2685 17.4435 10.1776 16.6476 8.28823C15.9548 6.64379 15.0351 5.24155 13.9997 4.35611ZM11.4721 4.45544C8.62796 5.20659 6.28604 7.19489 5.05803 9.81201C5.79127 11.3747 6.92203 12.7125 8.31942 13.6974C8.36711 11.7658 8.86527 9.56662 9.69712 7.59179C10.169 6.47175 10.7638 5.38831 11.4721 4.45544ZM16.526 4.45544C17.2346 5.38844 17.8303 6.47152 18.3022 7.59179C19.1341 9.56661 19.6311 11.7658 19.6788 13.6974C21.0764 12.7125 22.2068 11.3748 22.9401 9.81201C21.7119 7.19478 19.3705 5.20632 16.526 4.45544ZM4.12788 14C4.12788 18.5783 7.24486 22.4269 11.4721 23.5435C10.764 22.6108 10.1688 21.528 9.69712 20.4083C9.08594 18.9573 8.65478 17.3853 8.45029 15.8872C6.78225 14.9833 5.36017 13.6851 4.30783 12.1175C4.19029 12.7266 4.12788 13.3558 4.12788 14ZM25.6663 14C25.6663 20.4434 20.443 25.6667 13.9997 25.6667C7.55635 25.6667 2.33301 20.4434 2.33301 14C2.33301 12.3925 2.65821 10.8585 3.24797 9.46261L3.42092 9.07349C5.27734 5.09373 9.31535 2.33337 13.9997 2.33337C18.8352 2.33337 22.982 5.27483 24.7514 9.46261L24.9594 9.99313C25.4167 11.2437 25.6663 12.5936 25.6663 14Z" fill="white"/>
</svg>
